<?xml version="1.0" encoding="UTF-8"?>
<svg id="Laag_1" data-name="Laag 1" xmlns="http://www.w3.org/2000/svg" version="1.1" viewBox="0 0 1080 1080">
  <defs>
    <style>
      .cls-1 {
        fill: #ededed;
      }

      .cls-1, .cls-2, .cls-3, .cls-4, .cls-5, .cls-6, .cls-7, .cls-8 {
        stroke-width: 0px;
      }

      .cls-2 {
        fill: #f9bc13;
      }

      .cls-3 {
        fill: #ececec;
      }

      .cls-4 {
        fill: #2e2343;
      }

      .cls-5 {
        fill: #fff;
      }

      .cls-6 {
        fill: #2d2342;
      }

      .cls-7 {
        fill: #f6a119;
      }

      .cls-8 {
        fill: #f5a019;
      }
    </style>
  </defs>
  <circle class="cls-4" cx="540.7" cy="538.7" r="291.9"/>
  <path class="cls-6" d="M605.7,226.9c103,20.9,195.4,92.6,236.5,190.1,80.6,188.7-44.7,398.3-241.7,436.9-175.6,36-347.3-77.8-381.5-254.2-43.7-230.8,159.4-420.6,386.7-372.8h0ZM605.3,228.8c-189.8-40.5-371.4,116.2-371.8,307.1-4.1,192.1,176.1,346.4,365.8,311.5,195-34.9,298.4-244,228.8-424.8-35.6-96.5-121.1-173.7-222.8-193.9h0Z"/>
  <g>
    <g>
      <path class="cls-5" d="M531.4,364l-29.2,48.1-65.1,107.4h58.9l-16.6,45.5c-70.3-12.8-117.1-26-145.9-35.7v-102.2c0-8.2,6.7-14.9,14.9-14.9h130l51.6-49.1c.7-.7,1.7.2,1.2,1Z"/>
      <path class="cls-2" d="M685.7,463.2l-68.6-4.9v126.6c36.9,4.2,77.6,8,122.4,11.2v-75.2c0-30.4-23.5-55.6-53.8-57.7ZM701.4,528.8l-38.4,27.6c-4.5,3.2-10.6,0-10.6-5.4v-55.3c0-5.5,6.2-8.6,10.6-5.4l38.4,27.6c3.7,2.7,3.7,8.2,0,10.9ZM591.5,412.2h-65.2l-23,77.1h61.5l-52.1,81.5c28,4.5,59.2,8.9,93.8,13v-156.7c0-8.2-6.7-14.9-14.9-14.9Z"/>
    </g>
    <path class="cls-1" d="M479.4,565.1l-19.4,53.2h-14.5c-5.5-10.9-16.8-18.3-29.8-18.3s-24.3,7.5-29.8,18.3h-37.5c-8.2,0-14.9-6.7-14.9-14.9v-74c28.8,9.8,75.5,23,145.9,35.7Z"/>
    <path class="cls-3" d="M441.5,618.3c-5.2-8.8-14.8-14.8-25.7-14.8s-20.6,5.9-25.7,14.8c-2.6,4.4-4.1,9.6-4.1,15.1,0,16.5,13.4,29.8,29.8,29.8s29.8-13.3,29.8-29.8-1.5-10.6-4.1-15.1ZM430.2,637.6c-.9,3.1-2.8,5.8-5.3,7.7-2.5,1.9-5.7,3.1-9,3.1-6.8,0-12.6-4.6-14.4-10.8-.1-.5-.2-.9-.3-1.4-.2-.9-.3-1.8-.3-2.8s0-1,0-1.4c.2-1.9.7-3.8,1.6-5.4,2.5-4.9,7.5-8.2,13.4-8.2s10.9,3.4,13.4,8.2c.3.6.6,1.2.8,1.8.6,1.5.9,3.2.9,5s-.2,2.9-.7,4.3Z"/>
    <path class="cls-8" d="M708.7,631.2c0-.9-.1-1.8-.3-2.7,0-.4-.2-.8-.2-1.2,0-.2,0-.5-.1-.7-2.1-9.3-8.6-17-17-20.9-3.8-1.8-8.1-2.8-12.6-2.8-14.4,0-26.6,10.1-29.7,23.6,0,.3-.1.6-.2.9,0,.4-.2.7-.2,1.1,0,.4,0,.7-.1,1-.2,1.2-.2,2.5-.2,3.8s0,1.3.1,1.9c0,.8,0,1.6.2,2.4h0c2.1,14.8,14.8,26.2,30.1,26.2s28-11.4,30.1-26.2c.1-.9.2-2,.2-2.9,0-.4.1-.9.1-1.3,0-.7,0-1.5,0-2.2ZM693,636.4c0,.4-.1.8-.3,1.2-1.8,6.2-7.6,10.8-14.4,10.8s-12.6-4.6-14.4-10.8h0c-.4-1.3-.7-2.8-.7-4.3s.1-2,.3-2.9c.1-.7.3-1.3.5-2,.2-.7.4-1.3.8-2,1.5-2.9,3.9-5.3,6.9-6.8,2-.9,4.2-1.5,6.5-1.5s4.3.5,6.2,1.3c3.1,1.4,5.7,3.9,7.2,6.9,0,.1,0,.2.1.4.3.5.5,1,.7,1.6.6,1.5.9,3.2.9,4.9s-.2,2.1-.4,3.1Z"/>
    <path class="cls-7" d="M744.8,626.5v11.1h-32.1c.2-1.4.3-2.8.3-4.3s-.1-3.2-.4-4.8c0-.6-.2-1.3-.3-2h0c-3.2-15.9-17.3-27.9-34-27.9s-30.8,12-34,27.9c0,.2,0,.4,0,.5,0,.5-.2,1-.2,1.4-.2,1.6-.4,3.2-.4,4.8s0,2.9.3,4.3h-159.9l-31,29.4c-.7.6-1.7-.2-1.2-1l18.2-28.4,7.1-11.1,5.3-8.2,30.4-47.5c28,4.5,59.2,8.9,93.8,13v19.6c0,8.2-6.7,14.9-14.9,14.9h-87.1l-8.7,8.2h121.4v-41.5c36.9,4.2,77.6,8,122.4,11.2v30.3h5.3Z"/>
    <path class="cls-3" d="M381.1,633.3c0,1.5,0,2.9.3,4.3h-47.8v-11.1h48.2c-.4,2.2-.6,4.5-.6,6.8Z"/>
  </g>
</svg>